<svg xmlns="http://www.w3.org/2000/svg" xmlns:xlink="http://www.w3.org/1999/xlink" width="500" zoomAndPan="magnify" viewBox="0 0 375 374.999991" height="500" preserveAspectRatio="xMidYMid meet" version="1.0"><defs><g/><clipPath id="758c1fcc69"><path d="M 267.164062 51.199219 L 350.757812 51.199219 L 350.757812 134.792969 L 267.164062 134.792969 Z M 267.164062 51.199219 " clip-rule="nonzero"/></clipPath><clipPath id="d6875e45f0"><path d="M 267.164062 77 L 325 77 L 325 134.792969 L 267.164062 134.792969 Z M 267.164062 77 " clip-rule="nonzero"/></clipPath><clipPath id="4cde9d501f"><path d="M 267.164062 109 L 293 109 L 293 134.792969 L 267.164062 134.792969 Z M 267.164062 109 " clip-rule="nonzero"/></clipPath></defs><rect x="-37.5" width="450" fill="#DA273F" y="-37.499999" height="449.999989" fill-opacity="1"/><rect x="-37.5" width="450" fill="#DA273F" y="-37.499999" height="449.999989" fill-opacity="1"/><g clip-path="url(#758c1fcc69)"><path fill="#ffffff" d="M 267.164062 51.199219 L 267.164062 64.226562 C 306.125 64.226562 337.710938 95.808594 337.710938 134.773438 L 350.734375 134.773438 C 350.734375 88.609375 313.324219 51.199219 267.164062 51.199219 Z M 267.164062 51.199219 " fill-opacity="1" fill-rule="nonzero"/></g><g clip-path="url(#d6875e45f0)"><path fill="#ffffff" d="M 267.164062 77.25 L 267.164062 90.277344 C 291.746094 90.277344 311.660156 110.207031 311.660156 134.773438 L 324.683594 134.773438 C 324.683594 103.007812 298.925781 77.25 267.164062 77.25 Z M 267.164062 77.25 " fill-opacity="1" fill-rule="nonzero"/></g><g clip-path="url(#4cde9d501f)"><path fill="#ffffff" d="M 279.652344 109.8125 C 272.746094 109.8125 267.164062 115.398438 267.164062 122.285156 C 267.164062 129.191406 272.746094 134.773438 279.652344 134.773438 C 286.539062 134.773438 292.136719 129.191406 292.136719 122.285156 C 292.121094 115.398438 286.539062 109.8125 279.652344 109.8125 Z M 279.652344 109.8125 " fill-opacity="1" fill-rule="nonzero"/></g><path stroke-linecap="butt" transform="matrix(1.416855, 0, 0, 1.416855, 24.247063, 128.26196)" fill="none" stroke-linejoin="miter" d="M 28.561687 33.582672 C 28.561687 34.781961 28.390754 36.146669 28.046131 37.676796 L 9.714933 37.676796 C 10.023715 40.384156 11.912251 41.737836 15.383296 41.737836 C 16.491604 41.737836 17.569585 41.566902 18.611726 41.23055 C 19.653866 40.894198 20.588485 40.386913 21.421094 39.711451 L 25.054801 45.189582 C 22.137911 47.34003 18.592427 48.415255 14.415594 48.415255 C 11.777158 48.415255 9.450262 47.946567 7.432149 47.009192 C 5.425063 46.074574 3.87288 44.753978 2.778357 43.052918 C 1.689348 41.343587 1.146222 39.336501 1.146222 37.037175 C 1.146222 34.307759 1.783085 31.845771 3.05957 29.648453 C 4.333297 27.451136 6.11431 25.730777 8.399851 24.487376 C 10.693663 23.241219 13.315556 22.620897 16.260017 22.620897 C 18.749575 22.620897 20.919323 23.073043 22.772017 23.980091 C 24.630226 24.887139 26.058344 26.169137 27.056373 27.826086 C 28.059916 29.483034 28.561687 31.401896 28.561687 33.582672 Z M 15.843712 28.8379 C 14.434893 28.8379 13.254903 29.215607 12.300986 29.973778 C 11.349826 30.723678 10.657822 31.757547 10.222218 33.078144 L 20.500261 33.078144 C 20.530588 31.757547 20.114283 30.723678 19.251347 29.973778 C 18.38841 29.215607 17.252532 28.8379 15.843712 28.8379 Z M 42.139842 48.641328 C 39.465565 48.641328 36.926382 48.31876 34.527804 47.673626 C 32.137498 47.028491 30.191066 46.201395 28.691265 45.189582 L 32.278104 38.374313 C 33.904725 39.416454 35.641626 40.207708 37.48605 40.748078 C 39.330473 41.28569 41.169383 41.555874 43.008292 41.555874 C 44.761735 41.555874 46.120929 41.302232 47.088631 40.792189 C 48.056333 40.282147 48.538805 39.58463 48.538805 38.699637 C 48.538805 37.927681 48.100445 37.329415 47.223723 36.902083 C 46.347002 36.47475 44.990565 36.011576 43.154412 35.518076 C 41.06186 34.963922 39.324959 34.404254 37.946466 33.841829 C 36.567974 33.27389 35.374199 32.402682 34.370656 31.23372 C 33.372627 30.064758 32.87637 28.52636 32.87637 26.62404 C 32.87637 24.321957 33.504962 22.303844 34.764905 20.572457 C 36.024847 18.832799 37.819645 17.48739 40.152055 16.53623 C 42.489979 15.585069 45.224909 15.108111 48.359601 15.108111 C 50.661684 15.108111 52.809376 15.347969 54.802677 15.827684 C 56.795977 16.299129 58.519093 16.982861 59.963754 17.873368 L 56.6471 24.644524 C 55.387158 23.850513 53.997637 23.246733 52.475781 22.833185 C 50.953925 22.414123 49.393471 22.204592 47.797176 22.204592 C 45.991351 22.204592 44.571503 22.496833 43.534876 23.081314 C 42.509278 23.665794 41.993721 24.418452 41.993721 25.342042 C 41.993721 26.136054 42.440353 26.750861 43.333616 27.186465 C 44.224123 27.613798 45.60813 28.068701 47.48288 28.556687 C 49.567161 29.083271 51.290277 29.620884 52.654985 30.177795 C 54.027964 30.731949 55.205197 31.578343 56.186684 32.716978 C 57.16817 33.8501 57.658914 35.333358 57.658914 37.172267 C 57.658914 39.449537 57.02205 41.456623 55.748323 43.18801 C 54.474595 44.919397 52.657742 46.262049 50.306033 47.213209 C 47.959838 48.164369 45.238693 48.641328 42.139842 48.641328 Z M 90.723443 23.037202 L 85.74157 47.99895 L 77.454071 47.99895 L 77.961356 45.423925 C 76.888889 46.435739 75.681329 47.191153 74.338677 47.684654 C 73.004296 48.17264 71.634074 48.415255 70.225255 48.415255 C 67.487568 48.415255 65.315063 47.681897 63.702227 46.212423 C 62.08939 44.734679 61.28435 42.628342 61.28435 39.893412 C 61.28435 38.878841 61.391873 37.853243 61.609674 36.811102 L 64.377688 23.037202 L 73.125604 23.037202 L 70.550579 35.978492 C 70.423758 36.562973 70.360347 37.130912 70.360347 37.676796 C 70.360347 39.857571 71.479683 40.949338 73.721112 40.949338 C 75.229184 40.949338 76.472584 40.48065 77.454071 39.543275 C 78.438315 38.6059 79.111019 37.219136 79.477699 35.382984 L 81.975528 23.037202 Z M 122.632795 23.037202 L 107.383907 47.99895 L 98.310668 47.99895 L 93.014498 23.037202 L 101.671433 23.037202 L 104.720659 38.330201 L 113.97586 23.037202 Z M 124.879739 23.037202 L 133.583542 23.037202 L 128.612697 47.99895 L 119.908893 47.99895 Z M 130.457121 20.269188 C 128.951806 20.269188 127.735976 19.858397 126.815142 19.031302 C 125.891552 18.201449 125.431136 17.170336 125.431136 15.940721 C 125.431136 14.501574 125.943935 13.313313 126.972291 12.375938 C 128.00616 11.438563 129.368111 10.969875 131.052629 10.969875 C 132.591027 10.969875 133.820643 11.364124 134.741476 12.149865 C 135.665066 12.930092 136.125483 13.933635 136.125483 15.163251 C 136.125483 16.663051 135.601656 17.889909 134.551244 18.84107 C 133.509104 19.79223 132.144396 20.269188 130.457121 20.269188 Z M 167.61853 13.826113 L 160.803262 47.99895 L 152.515763 47.99895 L 153.023048 45.559018 C 151.026991 47.464095 148.617385 48.415255 145.791475 48.415255 C 143.947051 48.415255 142.218421 47.963109 140.608342 47.056061 C 138.995505 46.149013 137.699722 44.836687 136.718235 43.119085 C 135.733991 41.395969 135.243248 39.366828 135.243248 37.037175 C 135.243248 34.338086 135.847028 31.889883 137.054587 29.692565 C 138.267661 27.495248 139.919095 25.769375 142.003377 24.509432 C 144.093172 23.24949 146.367685 22.620897 148.826916 22.620897 C 152.388942 22.620897 154.922611 23.726448 156.430683 25.937551 L 158.870615 13.826113 Z M 148.826916 41.365642 C 150.574845 41.365642 152.000207 40.720508 153.100244 39.430239 C 154.211309 38.142726 154.765463 36.469236 154.765463 34.415282 C 154.765463 32.940294 154.349158 31.774089 153.516549 30.919424 C 152.69221 30.056487 151.545304 29.626397 150.075831 29.626397 C 148.322388 29.626397 146.888755 30.271532 145.780447 31.559044 C 144.677653 32.849314 144.126256 34.536589 144.126256 36.62087 C 144.126256 38.095857 144.539803 39.259305 145.364142 40.1057 C 146.196752 40.946581 147.351929 41.365642 148.826916 41.365642 Z M 187.008411 22.620897 C 189.7075 22.620897 191.882761 23.357012 193.53971 24.834756 C 195.196658 26.30423 196.026511 28.421595 196.026511 31.189608 C 196.026511 32.201422 195.921745 33.196694 195.712214 34.180938 L 192.944201 47.99895 L 184.196285 47.99895 L 186.77131 35.010791 C 186.88986 34.486963 186.950514 33.932809 186.950514 33.348328 C 186.950514 31.14274 185.800851 30.042702 183.498768 30.042702 C 181.963127 30.042702 180.703184 30.51139 179.721698 31.446008 C 178.737454 32.377869 178.048207 33.778418 177.651201 35.653168 L 175.167157 47.99895 L 166.416485 47.99895 L 173.231753 13.826113 L 181.979669 13.826113 L 179.721698 25.104941 C 181.841819 23.447993 184.270724 22.620897 187.008411 22.620897 Z M 229.829912 23.037202 L 224.859067 47.99895 L 216.56054 47.99895 L 217.065068 45.649998 C 215.071768 47.494422 212.662162 48.415255 209.836252 48.415255 C 207.997343 48.415255 206.274227 47.963109 204.66139 47.056061 C 203.05131 46.149013 201.750013 44.836687 200.760255 43.119085 C 199.778768 41.395969 199.288025 39.366828 199.288025 37.037175 C 199.288025 34.338086 199.894562 31.889883 201.107635 29.692565 C 202.323466 27.495248 203.963873 25.769375 206.034369 24.509432 C 208.110379 23.24949 210.379378 22.620897 212.838609 22.620897 C 216.458532 22.620897 219.005986 23.756775 220.483731 26.025774 L 221.07924 23.037202 Z M 212.882721 41.365642 C 214.627893 41.365642 216.053255 40.720508 217.156049 39.430239 C 218.264357 38.142726 218.821268 36.469236 218.821268 34.415282 C 218.821268 32.940294 218.396693 31.774089 217.550298 30.919424 C 216.709417 30.056487 215.551483 29.626397 214.073739 29.626397 C 212.328567 29.626397 210.900448 30.271532 209.789383 31.559044 C 208.689346 32.849314 208.137949 34.536589 208.137949 36.62087 C 208.137949 38.095857 208.557011 39.259305 209.395134 40.1057 C 210.244286 40.946581 211.404977 41.365642 212.882721 41.365642 Z M 212.882721 41.365642 " stroke="#DA273F" stroke-width="3.454912" stroke-opacity="1" stroke-miterlimit="4"/><g fill="#fff" fill-opacity="1"><g transform="translate(24.247063, 196.271019)"><g><path d="M 40.46875 -20.421875 C 40.46875 -18.722656 40.226562 -16.789062 39.75 -14.625 L 13.765625 -14.625 C 14.203125 -10.789062 16.878906 -8.875 21.796875 -8.875 C 23.359375 -8.875 24.878906 -9.113281 26.359375 -9.59375 C 27.847656 -10.070312 29.175781 -10.789062 30.34375 -11.75 L 35.5 -3.984375 C 31.363281 -0.929688 26.335938 0.59375 20.421875 0.59375 C 16.679688 0.59375 13.382812 -0.0664062 10.53125 -1.390625 C 7.6875 -2.722656 5.488281 -4.597656 3.9375 -7.015625 C 2.394531 -9.429688 1.625 -12.269531 1.625 -15.53125 C 1.625 -19.40625 2.523438 -22.894531 4.328125 -26 C 6.140625 -29.113281 8.664062 -31.550781 11.90625 -33.3125 C 15.144531 -35.082031 18.851562 -35.96875 23.03125 -35.96875 C 26.5625 -35.96875 29.640625 -35.320312 32.265625 -34.03125 C 34.898438 -32.75 36.925781 -30.929688 38.34375 -28.578125 C 39.757812 -26.234375 40.46875 -23.515625 40.46875 -20.421875 Z M 22.453125 -27.15625 C 20.453125 -27.15625 18.773438 -26.617188 17.421875 -25.546875 C 16.078125 -24.484375 15.097656 -23.015625 14.484375 -21.140625 L 29.046875 -21.140625 C 29.085938 -23.015625 28.5 -24.484375 27.28125 -25.546875 C 26.0625 -26.617188 24.453125 -27.15625 22.453125 -27.15625 Z M 22.453125 -27.15625 "/></g></g></g><g fill="#fff" fill-opacity="1"><g transform="translate(65.871406, 196.271019)"><g><path d="M 18.078125 0.90625 C 14.296875 0.90625 10.707031 0.453125 7.3125 -0.453125 C 3.914062 -1.367188 1.148438 -2.546875 -0.984375 -3.984375 L 4.109375 -13.640625 C 6.421875 -12.160156 8.878906 -11.039062 11.484375 -10.28125 C 14.097656 -9.519531 16.707031 -9.140625 19.3125 -9.140625 C 21.789062 -9.140625 23.71875 -9.5 25.09375 -10.21875 C 26.46875 -10.9375 27.15625 -11.925781 27.15625 -13.1875 C 27.15625 -14.269531 26.535156 -15.113281 25.296875 -15.71875 C 24.054688 -16.332031 22.128906 -16.988281 19.515625 -17.6875 C 16.554688 -18.46875 14.097656 -19.257812 12.140625 -20.0625 C 10.179688 -20.875 8.492188 -22.101562 7.078125 -23.75 C 5.660156 -25.40625 4.953125 -27.582031 4.953125 -30.28125 C 4.953125 -33.539062 5.84375 -36.398438 7.625 -38.859375 C 9.414062 -41.316406 11.960938 -43.21875 15.265625 -44.5625 C 18.578125 -45.914062 22.453125 -46.59375 26.890625 -46.59375 C 30.148438 -46.59375 33.191406 -46.253906 36.015625 -45.578125 C 38.847656 -44.910156 41.289062 -43.945312 43.34375 -42.6875 L 38.640625 -33.09375 C 36.859375 -34.21875 34.890625 -35.070312 32.734375 -35.65625 C 30.578125 -36.25 28.367188 -36.546875 26.109375 -36.546875 C 23.535156 -36.546875 21.519531 -36.128906 20.0625 -35.296875 C 18.601562 -34.472656 17.875 -33.410156 17.875 -32.109375 C 17.875 -30.972656 18.503906 -30.101562 19.765625 -29.5 C 21.035156 -28.894531 23 -28.242188 25.65625 -27.546875 C 28.613281 -26.804688 31.054688 -26.039062 32.984375 -25.25 C 34.921875 -24.46875 36.585938 -23.269531 37.984375 -21.65625 C 39.378906 -20.050781 40.078125 -17.945312 40.078125 -15.34375 C 40.078125 -12.113281 39.171875 -9.269531 37.359375 -6.8125 C 35.554688 -4.351562 32.988281 -2.453125 29.65625 -1.109375 C 26.332031 0.234375 22.472656 0.90625 18.078125 0.90625 Z M 18.078125 0.90625 "/></g></g></g><g fill="#ffffff" fill-opacity="1"><g transform="translate(108.082912, 196.271019)"><g><path d="M 44.703125 -35.375 L 37.65625 0 L 25.90625 0 L 26.625 -3.65625 C 25.101562 -2.21875 23.394531 -1.148438 21.5 -0.453125 C 19.613281 0.242188 17.664062 0.59375 15.65625 0.59375 C 11.789062 0.59375 8.710938 -0.445312 6.421875 -2.53125 C 4.140625 -4.625 3 -7.609375 3 -11.484375 C 3 -12.921875 3.148438 -14.378906 3.453125 -15.859375 L 7.375 -35.375 L 19.78125 -35.375 L 16.125 -17.03125 C 15.945312 -16.207031 15.859375 -15.40625 15.859375 -14.625 C 15.859375 -11.53125 17.445312 -9.984375 20.625 -9.984375 C 22.757812 -9.984375 24.519531 -10.644531 25.90625 -11.96875 C 27.300781 -13.300781 28.257812 -15.269531 28.78125 -17.875 L 32.3125 -35.375 Z M 44.703125 -35.375 "/></g></g></g><g fill="#ffffff" fill-opacity="1"><g transform="translate(153.230304, 196.271019)"><g><path d="M 44.765625 -35.375 L 23.171875 0 L 10.3125 0 L 2.8125 -35.375 L 15.078125 -35.375 L 19.390625 -13.703125 L 32.5 -35.375 Z M 44.765625 -35.375 "/></g></g></g><g fill="#ffffff" fill-opacity="1"><g transform="translate(193.680275, 196.271019)"><g><path d="M 7.5 -35.375 L 19.84375 -35.375 L 12.796875 0 L 0.453125 0 Z M 15.40625 -39.296875 C 13.269531 -39.296875 11.550781 -39.878906 10.25 -41.046875 C 8.945312 -42.222656 8.296875 -43.679688 8.296875 -45.421875 C 8.296875 -47.472656 9.023438 -49.160156 10.484375 -50.484375 C 11.941406 -51.804688 13.863281 -52.46875 16.25 -52.46875 C 18.425781 -52.46875 20.164062 -51.910156 21.46875 -50.796875 C 22.78125 -49.691406 23.4375 -48.269531 23.4375 -46.53125 C 23.4375 -44.40625 22.695312 -42.664062 21.21875 -41.3125 C 19.738281 -39.96875 17.800781 -39.296875 15.40625 -39.296875 Z M 15.40625 -39.296875 "/></g></g></g><g fill="#ffffff" fill-opacity="1"><g transform="translate(214.035746, 196.271019)"><g><path d="M 47.703125 -48.421875 L 38.046875 0 L 26.296875 0 L 27.015625 -3.453125 C 24.191406 -0.753906 20.773438 0.59375 16.765625 0.59375 C 14.160156 0.59375 11.710938 -0.046875 9.421875 -1.328125 C 7.140625 -2.617188 5.300781 -4.484375 3.90625 -6.921875 C 2.519531 -9.359375 1.828125 -12.226562 1.828125 -15.53125 C 1.828125 -19.363281 2.6875 -22.832031 4.40625 -25.9375 C 6.125 -29.050781 8.460938 -31.5 11.421875 -33.28125 C 14.378906 -35.070312 17.597656 -35.96875 21.078125 -35.96875 C 26.128906 -35.96875 29.71875 -34.398438 31.84375 -31.265625 L 35.3125 -48.421875 Z M 21.078125 -9.390625 C 23.554688 -9.390625 25.578125 -10.300781 27.140625 -12.125 C 28.710938 -13.957031 29.5 -16.332031 29.5 -19.25 C 29.5 -21.34375 28.910156 -23 27.734375 -24.21875 C 26.554688 -25.4375 24.925781 -26.046875 22.84375 -26.046875 C 20.363281 -26.046875 18.335938 -25.128906 16.765625 -23.296875 C 15.203125 -21.472656 14.421875 -19.082031 14.421875 -16.125 C 14.421875 -14.03125 15.007812 -12.382812 16.1875 -11.1875 C 17.363281 -9.988281 18.992188 -9.390625 21.078125 -9.390625 Z M 21.078125 -9.390625 "/></g></g></g><g fill="#ffffff" fill-opacity="1"><g transform="translate(259.574601, 196.271019)"><g><path d="M 29.625 -35.96875 C 33.457031 -35.96875 36.546875 -34.921875 38.890625 -32.828125 C 41.242188 -30.742188 42.421875 -27.742188 42.421875 -23.828125 C 42.421875 -22.390625 42.269531 -20.972656 41.96875 -19.578125 L 38.046875 0 L 25.65625 0 L 29.296875 -18.40625 C 29.472656 -19.144531 29.5625 -19.925781 29.5625 -20.75 C 29.5625 -23.882812 27.929688 -25.453125 24.671875 -25.453125 C 22.492188 -25.453125 20.707031 -24.785156 19.3125 -23.453125 C 17.925781 -22.128906 16.945312 -20.140625 16.375 -17.484375 L 12.859375 0 L 0.453125 0 L 10.109375 -48.421875 L 22.515625 -48.421875 L 19.3125 -32.4375 C 22.320312 -34.789062 25.757812 -35.96875 29.625 -35.96875 Z M 29.625 -35.96875 "/></g></g></g><g fill="#ffffff" fill-opacity="1"><g transform="translate(304.982962, 196.271019)"><g><path d="M 44.90625 -35.375 L 37.859375 0 L 26.109375 0 L 26.828125 -3.328125 C 23.992188 -0.710938 20.578125 0.59375 16.578125 0.59375 C 13.960938 0.59375 11.515625 -0.046875 9.234375 -1.328125 C 6.953125 -2.617188 5.113281 -4.484375 3.71875 -6.921875 C 2.320312 -9.359375 1.625 -12.226562 1.625 -15.53125 C 1.625 -19.363281 2.484375 -22.832031 4.203125 -25.9375 C 5.921875 -29.050781 8.25 -31.5 11.1875 -33.28125 C 14.125 -35.070312 17.332031 -35.96875 20.8125 -35.96875 C 25.945312 -35.96875 29.5625 -34.351562 31.65625 -31.125 L 32.5 -35.375 Z M 20.890625 -9.390625 C 23.367188 -9.390625 25.390625 -10.300781 26.953125 -12.125 C 28.515625 -13.957031 29.296875 -16.332031 29.296875 -19.25 C 29.296875 -21.34375 28.695312 -23 27.5 -24.21875 C 26.3125 -25.4375 24.671875 -26.046875 22.578125 -26.046875 C 20.097656 -26.046875 18.070312 -25.128906 16.5 -23.296875 C 14.9375 -21.472656 14.15625 -19.082031 14.15625 -16.125 C 14.15625 -14.03125 14.753906 -12.382812 15.953125 -11.1875 C 17.148438 -9.988281 18.796875 -9.390625 20.890625 -9.390625 Z M 20.890625 -9.390625 "/></g></g></g><g fill="#ffffff" fill-opacity="1"><g transform="translate(172.78066, 249.380449)"><g><path d="M 19.90625 -15.578125 L 29.59375 0 L 20.484375 0 L 13.84375 -10.390625 L 10.09375 -7 L 8.703125 0 L 0.65625 0 L 6.4375 -28.859375 L 14.46875 -28.859375 L 12.125 -17.0625 L 25.140625 -28.859375 L 34.75 -28.859375 Z M 19.90625 -15.578125 "/></g></g></g><g fill="#ffffff" fill-opacity="1"><g transform="translate(203.762568, 249.380449)"><g><path d="M 25.5625 -12.90625 C 25.5625 -11.832031 25.410156 -10.609375 25.109375 -9.234375 L 8.703125 -9.234375 C 8.972656 -6.816406 10.660156 -5.609375 13.765625 -5.609375 C 14.753906 -5.609375 15.710938 -5.757812 16.640625 -6.0625 C 17.578125 -6.363281 18.421875 -6.816406 19.171875 -7.421875 L 22.421875 -2.515625 C 19.804688 -0.585938 16.632812 0.375 12.90625 0.375 C 10.539062 0.375 8.457031 -0.0390625 6.65625 -0.875 C 4.851562 -1.71875 3.460938 -2.898438 2.484375 -4.421875 C 1.515625 -5.953125 1.03125 -7.75 1.03125 -9.8125 C 1.03125 -12.257812 1.597656 -14.460938 2.734375 -16.421875 C 3.878906 -18.390625 5.472656 -19.929688 7.515625 -21.046875 C 9.566406 -22.160156 11.910156 -22.71875 14.546875 -22.71875 C 16.773438 -22.71875 18.71875 -22.3125 20.375 -21.5 C 22.039062 -20.6875 23.320312 -19.535156 24.21875 -18.046875 C 25.113281 -16.566406 25.5625 -14.851562 25.5625 -12.90625 Z M 14.171875 -17.140625 C 12.910156 -17.140625 11.851562 -16.800781 11 -16.125 C 10.15625 -15.457031 9.539062 -14.535156 9.15625 -13.359375 L 18.34375 -13.359375 C 18.375 -14.535156 18.003906 -15.457031 17.234375 -16.125 C 16.460938 -16.800781 15.441406 -17.140625 14.171875 -17.140625 Z M 14.171875 -17.140625 "/></g></g></g><g fill="#ffffff" fill-opacity="1"><g transform="translate(230.047747, 249.380449)"><g><path d="M 18.71875 -22.71875 C 21.15625 -22.71875 23.109375 -22.0625 24.578125 -20.75 C 26.054688 -19.445312 26.796875 -17.570312 26.796875 -15.125 C 26.796875 -14.21875 26.695312 -13.296875 26.5 -12.359375 L 24.03125 0 L 16.203125 0 L 18.5 -11.625 C 18.613281 -12.09375 18.671875 -12.585938 18.671875 -13.109375 C 18.671875 -15.085938 17.640625 -16.078125 15.578125 -16.078125 C 14.203125 -16.078125 13.070312 -15.65625 12.1875 -14.8125 C 11.3125 -13.976562 10.695312 -12.722656 10.34375 -11.046875 L 8.125 0 L 0.28125 0 L 4.734375 -22.34375 L 12.15625 -22.34375 L 11.703125 -20.03125 C 12.671875 -20.9375 13.757812 -21.609375 14.96875 -22.046875 C 16.175781 -22.492188 17.425781 -22.71875 18.71875 -22.71875 Z M 18.71875 -22.71875 "/></g></g></g><g fill="#ffffff" fill-opacity="1"><g transform="translate(258.722488, 249.380449)"><g><path d="M 30.125 -30.578125 L 24.03125 0 L 16.609375 0 L 17.0625 -2.1875 C 15.28125 -0.476562 13.125 0.375 10.59375 0.375 C 8.945312 0.375 7.398438 -0.03125 5.953125 -0.84375 C 4.515625 -1.65625 3.351562 -2.828125 2.46875 -4.359375 C 1.59375 -5.898438 1.15625 -7.71875 1.15625 -9.8125 C 1.15625 -12.226562 1.695312 -14.414062 2.78125 -16.375 C 3.863281 -18.34375 5.335938 -19.890625 7.203125 -21.015625 C 9.078125 -22.148438 11.113281 -22.71875 13.3125 -22.71875 C 16.5 -22.71875 18.765625 -21.726562 20.109375 -19.75 L 22.296875 -30.578125 Z M 13.3125 -5.9375 C 14.875 -5.9375 16.148438 -6.507812 17.140625 -7.65625 C 18.128906 -8.8125 18.625 -10.3125 18.625 -12.15625 C 18.625 -13.476562 18.253906 -14.523438 17.515625 -15.296875 C 16.773438 -16.066406 15.742188 -16.453125 14.421875 -16.453125 C 12.859375 -16.453125 11.582031 -15.875 10.59375 -14.71875 C 9.601562 -13.5625 9.109375 -12.050781 9.109375 -10.1875 C 9.109375 -8.863281 9.476562 -7.820312 10.21875 -7.0625 C 10.957031 -6.3125 11.988281 -5.9375 13.3125 -5.9375 Z M 13.3125 -5.9375 "/></g></g></g><g fill="#ffffff" fill-opacity="1"><g transform="translate(287.479619, 249.380449)"><g><path d="M 11.671875 -19.875 C 13.535156 -21.769531 16.226562 -22.71875 19.75 -22.71875 L 18.390625 -15.65625 C 17.703125 -15.738281 17.109375 -15.78125 16.609375 -15.78125 C 14.847656 -15.78125 13.4375 -15.359375 12.375 -14.515625 C 11.320312 -13.679688 10.617188 -12.359375 10.265625 -10.546875 L 8.125 0 L 0.28125 0 L 4.734375 -22.34375 L 12.15625 -22.34375 Z M 11.671875 -19.875 "/></g></g></g><g fill="#ffffff" fill-opacity="1"><g transform="translate(305.730929, 249.380449)"><g><path d="M 28.359375 -22.34375 L 23.90625 0 L 16.484375 0 L 16.9375 -2.109375 C 15.15625 -0.453125 13 0.375 10.46875 0.375 C 8.820312 0.375 7.273438 -0.03125 5.828125 -0.84375 C 4.390625 -1.65625 3.226562 -2.828125 2.34375 -4.359375 C 1.46875 -5.898438 1.03125 -7.71875 1.03125 -9.8125 C 1.03125 -12.226562 1.570312 -14.414062 2.65625 -16.375 C 3.738281 -18.34375 5.207031 -19.890625 7.0625 -21.015625 C 8.914062 -22.148438 10.945312 -22.71875 13.15625 -22.71875 C 16.394531 -22.71875 18.671875 -21.695312 19.984375 -19.65625 L 20.53125 -22.34375 Z M 13.1875 -5.9375 C 14.757812 -5.9375 16.035156 -6.507812 17.015625 -7.65625 C 18.003906 -8.8125 18.5 -10.3125 18.5 -12.15625 C 18.5 -13.476562 18.117188 -14.523438 17.359375 -15.296875 C 16.609375 -16.066406 15.578125 -16.453125 14.265625 -16.453125 C 12.691406 -16.453125 11.410156 -15.875 10.421875 -14.71875 C 9.429688 -13.5625 8.9375 -12.050781 8.9375 -10.1875 C 8.9375 -8.863281 9.316406 -7.820312 10.078125 -7.0625 C 10.835938 -6.3125 11.875 -5.9375 13.1875 -5.9375 Z M 13.1875 -5.9375 "/></g></g></g></svg>